<?xml version="1.0" encoding="utf-8"?>
<!-- Generator: Adobe Illustrator 16.0.0, SVG Export Plug-In . SVG Version: 6.00 Build 0)  -->
<!DOCTYPE svg PUBLIC "-//W3C//DTD SVG 1.1//EN" "http://www.w3.org/Graphics/SVG/1.1/DTD/svg11.dtd">
<svg version="1.1" id="Capa_1" xmlns="http://www.w3.org/2000/svg" xmlns:xlink="http://www.w3.org/1999/xlink" x="0px" y="0px"
	 width="205px" height="205px" viewBox="0 0 205 205" enable-background="new 0 0 205 205" xml:space="preserve">
<g>
	<linearGradient id="SVGID_1_" gradientUnits="userSpaceOnUse" x1="2.5" y1="102.5" x2="202.5" y2="102.5">
		<stop  offset="0" style="stop-color:#009299"/>
		<stop  offset="0.2546" style="stop-color:#007B94"/>
		<stop  offset="0.6087" style="stop-color:#115B88"/>
		<stop  offset="0.8591" style="stop-color:#1F4480"/>
		<stop  offset="0.9805" style="stop-color:#23367B"/>
	</linearGradient>
	<circle fill="url(#SVGID_1_)" cx="102.5" cy="102.5" r="100"/>
	<g>
		<path fill="#FFFFFF" d="M82.152,130.122c5.199,0,8.097-4.216,8.097-9.415c0-5.198-2.897-9.414-8.097-9.414H61.444
			c-15.172,0-28.35-12.173-28.35-27.188c0-15.014,13.178-27.186,28.35-27.186l33.445,0.103l9.968,17.721H55.976
			c-5.198,0-7.902,4.216-7.902,9.415c0,5.198,2.704,9.414,7.902,9.414l21.969-0.052c15.173,0,27.909,12.171,27.909,27.186
			s-12.736,27.187-27.909,27.187l-38.139,0.002l-7.47-8.912l7.47-8.91L82.152,130.122z"/>
	</g>
	<polygon fill="#FFFFFF" points="170.888,56.971 106.631,56.971 116.6,74.796 160.919,74.796 	"/>
	<polygon fill="#FFFFFF" points="170.888,147.896 106.631,147.896 116.6,130.07 160.919,130.07 	"/>
	<polygon fill="#FFFFFF" points="156.995,93.572 106.631,93.587 116.6,111.412 156.965,111.412 164.449,102.433 	"/>
</g>
</svg>
