<?xml version="1.0" encoding="utf-8"?>
<!-- Generator: Adobe Illustrator 16.0.0, SVG Export Plug-In . SVG Version: 6.00 Build 0)  -->
<!DOCTYPE svg PUBLIC "-//W3C//DTD SVG 1.1//EN" "http://www.w3.org/Graphics/SVG/1.1/DTD/svg11.dtd">
<svg version="1.1" id="Capa_1" xmlns="http://www.w3.org/2000/svg" xmlns:xlink="http://www.w3.org/1999/xlink" x="0px" y="0px"
	 width="205px" height="205px" viewBox="0 0 205 205" enable-background="new 0 0 205 205" xml:space="preserve">
<linearGradient id="SVGID_1_" gradientUnits="userSpaceOnUse" x1="-105.5" y1="509.5" x2="94.5" y2="509.5" gradientTransform="matrix(1 0 0 1 108 -407)">
	<stop  offset="0" style="stop-color:#009299"/>
	<stop  offset="0.2546" style="stop-color:#007B94"/>
	<stop  offset="0.6087" style="stop-color:#115B88"/>
	<stop  offset="0.8591" style="stop-color:#1F4480"/>
	<stop  offset="0.9805" style="stop-color:#23367B"/>
</linearGradient>
<circle fill="url(#SVGID_1_)" cx="102.5" cy="102.5" r="100"/>
<g>
	<g>
		<path fill="none" stroke="#FFFFFF" stroke-width="3" stroke-linecap="round" stroke-linejoin="round" stroke-miterlimit="10" d="
			M102.18,54.899c5.781,0,10.461,4.697,10.461,10.462c0,5.764-4.68,10.46-10.461,10.46c-5.763,0-10.443-4.696-10.443-10.46
			C91.736,59.596,96.417,54.899,102.18,54.899z"/>
		
			<polygon fill="none" stroke="#FFFFFF" stroke-width="3" stroke-linecap="round" stroke-linejoin="round" stroke-miterlimit="10" points="
			73.851,157.981 85.029,157.981 119.983,157.981 131.149,157.981 131.149,164.13 73.851,164.13 		"/>
		
			<polygon fill="none" stroke="#FFFFFF" stroke-width="3" stroke-linecap="round" stroke-linejoin="round" stroke-miterlimit="10" points="
			114.842,138.435 119.983,157.981 85.029,157.981 90.171,138.435 		"/>
		<path fill="none" stroke="#FFFFFF" stroke-width="3" stroke-linecap="round" stroke-linejoin="round" stroke-miterlimit="10" d="
			M53.395,125.898h98.212c2.792,0,5.077-2.298,5.077-5.093v11.625c0,3.289-2.7,6.004-6.004,6.004h-35.838H90.171h-10.49H54.338
			c-3.306,0-6.021-2.715-6.021-6.004v-11.625C48.316,123.601,50.601,125.898,53.395,125.898z M100.232,132.175
			c0,1.246,1.022,2.253,2.269,2.253c1.262,0,2.267-1.007,2.267-2.253c0-1.262-1.005-2.283-2.267-2.283
			C101.255,129.892,100.232,130.913,100.232,132.175z"/>
		
			<polygon fill="none" stroke="#FFFFFF" stroke-width="3" stroke-linecap="round" stroke-linejoin="round" stroke-miterlimit="10" points="
			67.958,106.065 67.958,108.431 67.958,110.762 59.606,110.762 59.606,106.065 		"/>
		
			<polygon fill="none" stroke="#FFFFFF" stroke-width="3" stroke-linecap="round" stroke-linejoin="round" stroke-miterlimit="10" points="
			110.436,103.78 110.436,108.431 110.436,113.076 93.954,113.076 93.954,103.78 		"/>
		
			<polygon fill="none" stroke="#FFFFFF" stroke-width="3" stroke-linecap="round" stroke-linejoin="round" stroke-miterlimit="10" points="
			136.386,106.065 144.722,106.065 144.722,110.762 136.386,110.762 136.386,108.431 		"/>
		<path fill="none" stroke="#FFFFFF" stroke-width="3" stroke-linecap="round" stroke-linejoin="round" stroke-miterlimit="10" d="
			M100.137,93.833l-1.183-7.874c-1.487-0.238-2.907-0.607-4.277-1.134l-4.955,6.215l-3.541-2.044l2.907-7.411
			c-1.152-0.926-2.206-1.998-3.132-3.13l-7.408,2.923L76.5,77.833l6.229-4.968c-0.527-1.356-0.926-2.81-1.15-4.279l-7.874-1.183
			v-2.042v-2.043l7.874-1.184c0.224-1.5,0.623-2.923,1.15-4.295l-1.022-0.798L76.5,52.888l2.047-3.544l7.408,2.922
			c0.926-1.167,1.98-2.205,3.132-3.146l-2.907-7.411l3.541-2.043l4.955,6.228c1.371-0.525,2.79-0.926,4.277-1.134l1.183-7.889h4.088
			l1.199,7.889c1.466,0.208,2.902,0.608,4.277,1.134l4.949-6.228l3.548,2.043l-2.925,7.411c1.168,0.942,2.205,1.98,3.132,3.146
			l7.424-2.922l2.044,3.544l-5.203,4.152l-1.025,0.798c0.527,1.373,0.914,2.796,1.15,4.295l7.873,1.184v2.043v2.028l-7.873,1.197
			c-0.236,1.469-0.623,2.923-1.15,4.279l6.229,4.968l-2.044,3.528l-7.424-2.907c-0.927,1.133-1.964,2.205-3.132,3.13l2.925,7.411
			l-3.548,2.044l-4.949-6.215c-1.375,0.527-2.812,0.896-4.277,1.134l-1.199,7.874H100.137z M91.736,65.361
			c0,5.764,4.681,10.46,10.443,10.46c5.781,0,10.461-4.696,10.461-10.46c0-5.765-4.68-10.462-10.461-10.462
			C96.417,54.899,91.736,59.596,91.736,65.361z"/>
		<path fill="none" stroke="#FFFFFF" stroke-width="3" stroke-linecap="round" stroke-linejoin="round" stroke-miterlimit="10" d="
			M59.606,106.065v4.696h8.352v-2.331v-2.365H59.606z M144.722,106.065h-8.336v2.365v2.331h8.336V106.065z M110.436,103.78H93.954
			v9.296h16.481v-4.646V103.78z M98.954,85.959l1.183,7.874h4.088l1.199-7.874c1.466-0.238,2.902-0.607,4.277-1.134l4.949,6.215
			l3.548-2.044l-2.925-7.411c1.168-0.926,2.205-1.998,3.132-3.13l7.424,2.907l2.044-3.528l-6.229-4.968
			c0.527-1.356,0.914-2.81,1.15-4.279l7.873-1.197v-2.028v-2.043l-7.873-1.184c-0.236-1.5-0.623-2.923-1.15-4.295l1.025-0.798h28.01
			c3.304,0,6.004,2.699,6.004,6.004v57.761c0,2.795-2.285,5.093-5.077,5.093H53.395c-2.794,0-5.078-2.298-5.078-5.093V63.044
			c0-3.305,2.715-6.004,6.021-6.004h27.369l1.022,0.798c-0.527,1.373-0.926,2.796-1.15,4.295l-7.874,1.184v2.043v2.042l7.874,1.183
			c0.224,1.469,0.623,2.923,1.15,4.279L76.5,77.833l2.047,3.544l7.408-2.923c0.926,1.133,1.98,2.205,3.132,3.13l-2.907,7.411
			l3.541,2.044l4.955-6.215C96.047,85.353,97.466,85.721,98.954,85.959z"/>
	</g>
	<g>
		
			<path fill="none" stroke="#FFFFFF" stroke-width="4" stroke-linecap="round" stroke-linejoin="round" stroke-miterlimit="2.6131" d="
			M90.171,138.435h-10.49H54.338c-3.306,0-6.021-2.715-6.021-6.004v-11.625V63.044c0-3.305,2.715-6.004,6.021-6.004h27.369"/>
		
			<path fill="none" stroke="#FFFFFF" stroke-width="4" stroke-linecap="round" stroke-linejoin="round" stroke-miterlimit="2.6131" d="
			M122.67,57.041h28.01c3.304,0,6.004,2.699,6.004,6.004v57.761v11.625c0,3.289-2.7,6.004-6.004,6.004h-35.838"/>
		
			<path fill="none" stroke="#FFFFFF" stroke-width="4" stroke-linecap="round" stroke-linejoin="round" stroke-miterlimit="2.6131" d="
			M156.684,120.806c0,2.795-2.285,5.093-5.077,5.093H53.395c-2.794,0-5.078-2.298-5.078-5.093"/>
		
			<polyline fill="none" stroke="#FFFFFF" stroke-width="4" stroke-linecap="round" stroke-linejoin="round" stroke-miterlimit="2.6131" points="
			85.029,157.981 90.171,138.435 114.842,138.435 119.983,157.981 		"/>
		
			<path fill="none" stroke="#FFFFFF" stroke-width="4" stroke-linecap="round" stroke-linejoin="round" stroke-miterlimit="2.6131" d="
			M102.501,129.892c1.262,0,2.267,1.021,2.267,2.283c0,1.246-1.005,2.253-2.267,2.253c-1.246,0-2.269-1.007-2.269-2.253
			C100.232,130.913,101.255,129.892,102.501,129.892z"/>
		
			<polygon fill="none" stroke="#FFFFFF" stroke-width="4" stroke-linecap="round" stroke-linejoin="round" stroke-miterlimit="2.6131" points="
			119.983,157.981 131.149,157.981 131.149,164.13 73.851,164.13 73.851,157.981 85.029,157.981 		"/>
		
			<path fill="none" stroke="#FFFFFF" stroke-width="4" stroke-linecap="round" stroke-linejoin="round" stroke-miterlimit="2.6131" d="
			M102.18,54.899c5.781,0,10.461,4.697,10.461,10.462c0,5.764-4.68,10.46-10.461,10.46c-5.763,0-10.443-4.696-10.443-10.46
			C91.736,59.596,96.417,54.899,102.18,54.899z"/>
		
			<path fill="none" stroke="#FFFFFF" stroke-width="4" stroke-linecap="round" stroke-linejoin="round" stroke-miterlimit="2.6131" d="
			M81.707,57.041l1.022,0.798c-0.527,1.373-0.926,2.796-1.15,4.295l-7.874,1.184v2.043v2.042l7.874,1.183
			c0.224,1.469,0.623,2.923,1.15,4.279L76.5,77.833l2.047,3.544l7.408-2.923c0.926,1.133,1.98,2.205,3.132,3.13l-2.907,7.411
			l3.541,2.044l4.955-6.215c1.371,0.527,2.79,0.896,4.277,1.134l1.183,7.874h4.088l1.199-7.874c1.466-0.238,2.902-0.607,4.277-1.134
			l4.949,6.215l3.548-2.044l-2.925-7.411c1.168-0.926,2.205-1.998,3.132-3.13l7.424,2.907l2.044-3.528l-6.229-4.968
			c0.527-1.356,0.914-2.81,1.15-4.279l7.873-1.197v-2.028v-2.043l-7.873-1.184c-0.236-1.5-0.623-2.923-1.15-4.295l1.025-0.798
			l5.203-4.152l-2.044-3.544l-7.424,2.922c-0.927-1.167-1.964-2.205-3.132-3.146l2.925-7.411l-3.548-2.043l-4.949,6.228
			c-1.375-0.525-2.812-0.926-4.277-1.134l-1.199-7.889h-4.088l-1.183,7.889c-1.487,0.208-2.907,0.608-4.277,1.134l-4.955-6.228
			l-3.541,2.043l2.907,7.411c-1.152,0.942-2.206,1.98-3.132,3.146l-7.408-2.922L76.5,52.888L81.707,57.041z"/>
		
			<polygon fill="none" stroke="#FFFFFF" stroke-width="4" stroke-linecap="round" stroke-linejoin="round" stroke-miterlimit="2.6131" points="
			93.954,103.78 110.436,103.78 110.436,108.431 110.436,113.076 93.954,113.076 		"/>
		
			<polygon fill="none" stroke="#FFFFFF" stroke-width="4" stroke-linecap="round" stroke-linejoin="round" stroke-miterlimit="2.6131" points="
			136.386,106.065 144.722,106.065 144.722,110.762 136.386,110.762 136.386,108.431 		"/>
		
			<line fill="none" stroke="#FFFFFF" stroke-width="4" stroke-linecap="round" stroke-linejoin="round" stroke-miterlimit="2.6131" x1="110.436" y1="108.431" x2="136.386" y2="108.431"/>
		
			<polygon fill="none" stroke="#FFFFFF" stroke-width="4" stroke-linecap="round" stroke-linejoin="round" stroke-miterlimit="2.6131" points="
			67.958,106.065 59.606,106.065 59.606,110.762 67.958,110.762 67.958,108.431 		"/>
		
			<line fill="none" stroke="#FFFFFF" stroke-width="4" stroke-linecap="round" stroke-linejoin="round" stroke-miterlimit="2.6131" x1="93.892" y1="108.431" x2="67.958" y2="108.431"/>
	</g>
</g>
</svg>
